OpenSim_Sub04_CSStiffKnee_LCS.mot
version=1
nRows=57
nColumns=11
inDegrees=no
endheader
time	Bot_Shank	2nd_Bot_Shank	2nd_Top_Shank	Top_Shank	Bot_Thigh	Med_Thigh	Top_Thigh	BNOx	BNOy	BNOZ
18.53000000	10062.78441278	10394.81351178	10806.51774474	10819.39813963	13187.70501371	14110.91086126	14721.08958356	198.14513595	-77.69824435	164.14626860
18.54000000	10062.82567422	10394.59748764	10805.96195922	10818.27308314	13183.52006783	14108.43709337	14717.72611090	199.73531978	-76.63036509	157.74040620
18.55000000	10062.62765428	10393.89907805	10804.91584688	10817.36920592	13178.75999809	14105.72642317	14713.33751823	201.38859123	-75.67241468	149.31262757
18.56000000	10062.11938299	10392.58342502	10803.19912175	10816.65419728	13174.99472967	14103.19909161	14708.51751660	203.04247935	-74.83415909	140.39207853
18.57000000	10061.22989042	10390.51567057	10800.63149781	10816.09574654	13173.79418778	14101.27533964	14703.85981708	204.63451319	-74.12536427	132.50790486
18.58000000	10059.91833302	10387.59809070	10797.07932799	10815.66325647	13176.49337256	14100.32406836	14699.92524220	206.10692027	-73.55426146	127.01607357
18.59000000	10058.36652021	10384.00740496	10792.75365594	10815.33879335	13182.69104126	14100.33474521	14697.03154782	207.43665268	-73.11773942	123.99265213
18.60000000	10056.85605512	10380.04333927	10788.02001671	10815.11009924	13191.20776192	14101.12677432	14695.38754658	208.61622615	-72.80760316	122.94005324
18.61000000	10055.66901161	10376.00619978	10783.24467408	10814.96494301	13200.86043189	14102.51875766	14695.20153724	209.63822983	-72.61563371	123.35798368
18.62000000	10055.08746356	10372.19629264	10778.79389186	10814.89109350	13210.46594850	14104.32929718	14696.68181856	210.49525287	-72.53361209	124.74615026
18.63000000	10055.39348481	10368.91392400	10775.03393382	10814.87631956	13218.84120910	14106.37699485	14700.03668931	211.17988443	-72.55331934	126.60425975
18.64000000	10056.86914924	10366.45940000	10772.33106376	10814.90839006	13224.80311103	14108.48045262	14705.47444824	211.68471365	-72.66653649	128.43201894
18.65000000	10059.79653070	10365.13302679	10771.05154546	10814.97507383	13227.16855163	14110.45827246	14713.20339412	212.00232968	-72.86504458	129.72913462
18.66000000	10064.42246532	10365.20431700	10771.52319419	10815.06456579	13224.87106579	14112.14235207	14723.39311913	212.12714964	-73.14024659	130.05026940
18.67000000	10070.63000845	10366.62488286	10773.67689745	10815.16945912	13218.04830963	14113.50184957	14735.81362374	212.07246176	-73.47964285	129.51742877
18.68000000	10078.08760426	10369.15879241	10777.20937669	10815.28494181	13207.54830621	14114.58689928	14749.99917074	211.86268722	-73.86843128	128.58732004
18.69000000	10086.46092313	10372.56768970	10781.81432676	10815.40623536	13194.22825994	14115.44868216	14765.48097604	211.52239110	-74.29178007	127.72097650
18.70000000	10095.41563544	10376.61321879	10787.18544254	10815.52856127	13178.94537525	14116.13837917	14781.79025556	211.07613849	-74.73485740	127.37943143
18.71000000	10104.61741154	10381.05702374	10793.01641890	10815.64714105	13162.55685656	14116.70717124	14798.45822521	210.54849446	-75.18283146	128.02371814
18.72000000	10113.73192183	10385.66074862	10799.00095072	10815.75719621	13145.91990829	14117.20623933	14815.01610091	209.96402410	-75.62087041	130.11486989
18.73000000	10122.42483665	10390.18603747	10804.83273286	10815.85394825	13129.89173487	14117.68676439	14830.99509857	209.34729247	-76.03414245	134.11391999
18.74000000	10130.36182640	10394.39453437	10810.20546019	10815.93261868	13115.32954071	14118.19992737	14845.92643411	208.72286466	-76.40781575	140.48190172
18.75000000	10137.20856144	10398.04788336	10814.81282759	10815.98842901	13103.09053026	14118.79690922	14859.34132343	208.11530576	-76.72705849	149.67984837
18.76000000	10142.65911793	10400.92665637	10818.37364838	10816.01720774	13093.95354383	14119.52274731	14870.79926156	207.54732494	-76.97840673	162.06856823
18.77000000	10146.70082258	10403.00682937	10820.86604924	10816.02104988	13087.88842105	14120.35905526	14880.15168591	207.02247191	-77.16251782	176.97418526
18.78000000	10149.49400415	10404.37965621	10822.42113780	10816.00574731	13084.38773456	14121.25003003	14887.42226431	206.53299328	-77.28837996	193.11241520
18.79000000	10151.20122744	10405.13788068	10823.17199894	10815.97713970	13082.93788837	14122.13938497	14892.63689061	206.07098960	-77.36508903	209.19108437
18.80000000	10151.98505723	10405.37424658	10823.25171753	10815.94106672	13083.02528650	14122.97083347	14895.82145867	205.62856139	-77.40174088	223.91801906
18.81000000	10152.00805832	10405.18149772	10822.79337846	10815.90336803	13084.13633297	14123.68808886	14897.00186234	205.19780919	-77.40743139	236.00104558
18.82000000	10151.43279550	10404.65237789	10821.93006661	10815.86988331	13085.75743180	14124.23486453	14896.20399550	204.77083353	-77.39125642	244.14799024
18.83000000	10150.42183356	10403.87963089	10820.79486686	10815.84645222	13087.37498703	14124.55487383	14893.45375200	204.33973495	-77.36231184	247.06667934
18.84000000	10149.13773730	10402.95600053	10819.52086409	10815.83891443	13088.47540265	14124.59183013	14888.77702570	203.89661397	-77.32969351	243.46493919
18.85000000	10147.74307151	10401.97423060	10818.24114319	10815.85310960	13088.54508271	14124.28944679	14882.19971045	203.43357113	-77.30249732	232.05059610
18.86000000	10146.40040097	10401.02706490	10817.08878903	10815.89487742	13087.07043121	14123.59143717	14873.74770012	202.94270697	-77.28981911	211.53147637
18.87000000	10145.27229050	10400.20724724	10816.19688650	10815.97005753	13083.53785218	14122.44151463	14863.44688857	202.41612201	-77.30075477	180.61540630
18.88000000	10144.49916931	10399.59973256	10815.68441283	10816.08237390	13077.50698523	14120.79307554	14851.35653053	201.84659013	-77.34358574	138.31046334
18.89000000	10143.99294774	10399.20906676	10815.52470336	10816.21370854	13069.29352613	14118.69947982	14837.88028552	201.23383648	-77.41818583	86.72440197
18.90000000	10143.53072220	10398.99235873	10815.60517250	10816.33305793	13059.65920317	14116.27306051	14823.62499342	200.58168708	-77.51946876	29.79361987
18.91000000	10142.88784667	10398.90610421	10815.81212416	10816.40925197	13049.37150955	14113.62691290	14809.20012019	199.89402096	-77.64228416	-28.52185038
18.92000000	10141.83967510	10398.90679898	10816.03186226	10816.41112061	13039.19793848	14110.87413224	14795.21513177	199.17471715	-77.78148165	-84.26197620
18.93000000	10140.16156148	10398.95093877	10816.15069071	10816.30749375	13029.90598316	14108.12781382	14782.27949411	198.42765470	-77.93191084	-133.46672499
18.94000000	10137.62885976	10398.99501936	10816.05491341	10816.06720132	13022.26313680	14105.50105290	14771.00267318	197.65671262	-78.08842137	-172.17606418
18.95000000	10134.05449665	10399.00095161	10815.65660223	10815.66880429	13016.91987004	14103.09596437	14761.91509350	196.86539354	-78.24596948	-196.99503455
18.96000000	10129.52908474	10398.97066743	10815.05827044	10815.16278207	13013.66178379	14100.93351120	14754.96301427	196.05441819	-78.40029951	-208.70492231
18.97000000	10124.26769627	10398.92403627	10814.44778768	10814.63184818	13011.88684176	14098.99828384	14749.83086999	195.22326045	-78.54750902	-209.95881922
18.98000000	10118.48599055	10398.88101222	10814.01342621	10814.15886816	13010.99117917	14097.27470117	14746.20186016	194.37138831	-78.68369722	-203.41864630
18.99000000	10112.39962689	10398.86154934	10813.94345830	10813.82670756	13010.37093127	14095.74718206	14743.75918428	193.49826978	-78.80496333	-191.74632461
19.00000000	10106.22426461	10398.88560171	10814.42615623	10813.71823192	13009.42223329	14094.40014540	14742.18604186	192.60337286	-78.90740658	-177.60377516
19.01000000	10100.17556302	10398.97312339	10815.64979226	10813.91630680	13007.54122045	14093.21801005	14741.16563238	191.68616553	-78.98712619	-163.65291899
19.02000000	10094.45144963	10399.13546375	10817.74669698	10814.48157781	13004.19727145	14092.18354426	14740.41682063	190.74630693	-79.04041727	-152.28680151
19.03000000	10089.11880285	10399.32037804	10820.43575701	10815.31047156	12999.40107990	14091.26731705	14739.92206000	189.78486875	-79.06502285	-143.91130924
19.04000000	10084.18576450	10399.44711840	10823.25055215	10816.22581117	12993.40595837	14090.43442971	14739.78194511	188.80355580	-79.05933487	-138.04167816
19.05000000	10079.66019934	10399.43480255	10825.72378812	10817.05007256	12986.46636385	14089.64995774	14740.09762785	187.80407588	-79.02174834	-134.18894311
19.06000000	10075.54997213	10399.20254820	10827.38817063	10817.60573167	12978.83675334	14088.87897663	14740.97026010	186.78813679	-78.95065827	-131.86413891
19.07000000	10071.86294761	10398.66947307	10827.77640540	10817.71526444	12970.77158383	14088.08656187	14742.50099376	185.75744632	-78.84445968	-130.57830038
19.08000000	10068.60699055	10397.75469485	10826.42119814	10817.20114681	12962.52531232	14087.23778898	14744.79098069	184.71371227	-78.70154758	-129.84246234
19.09000000	10065.78996571	10396.37733126	10822.85525457	10815.88585471	12954.35239579	14086.29773344	14747.94137280	183.65864244	-78.52031697	-129.16765962
